# Blender 4.5.3 LTS
# www.blender.org
mtllib particleplanes03.mtl
o Cylinder
v 0.000000 1.000000 0.181061
v -0.195090 0.980785 0.181061
v -0.382683 0.923880 0.181061
v -0.555570 0.831470 0.181061
v -0.707107 0.707107 0.181061
v -0.831470 0.555570 0.181061
v -0.923879 0.382683 0.181062
v -0.980785 0.195090 0.181062
v -1.000000 0.000000 0.181062
v -0.980785 -0.195090 0.181062
v -0.923879 -0.382683 0.181062
v -0.831470 -0.555570 0.181062
v -0.707107 -0.707107 0.181062
v -0.555570 -0.831470 0.181061
v -0.382683 -0.923880 0.181061
v -0.195090 -0.980785 0.181061
v 0.000000 -1.000000 0.181061
v 0.195090 -0.980785 0.181061
v 0.382684 -0.923880 0.181061
v 0.555570 -0.831470 0.181061
v 0.707107 -0.707107 0.181061
v 0.831470 -0.555570 0.181061
v 0.923880 -0.382683 0.181061
v 0.980785 -0.195090 0.181061
v 1.000000 0.000000 0.181061
v 0.980785 0.195090 0.181061
v 0.923880 0.382683 0.181061
v 0.831470 0.555570 0.181061
v 0.707107 0.707107 0.181061
v 0.555570 0.831470 0.181061
v 0.382684 0.923880 0.181061
v 0.195090 0.980785 0.181061
v 0.000000 0.500000 -0.127118
v -0.097545 0.490393 -0.127118
v -0.191342 0.461940 -0.127118
v -0.277785 0.415735 -0.127118
v -0.353553 0.353553 -0.127118
v -0.415735 0.277785 -0.127118
v -0.461940 0.191342 -0.127118
v -0.490393 0.097545 -0.127118
v -0.500000 0.000000 -0.127118
v -0.490393 -0.097545 -0.127118
v -0.461940 -0.191342 -0.127118
v -0.415735 -0.277785 -0.127118
v -0.353553 -0.353553 -0.127118
v -0.277785 -0.415735 -0.127118
v -0.191342 -0.461940 -0.127118
v -0.097545 -0.490393 -0.127118
v 0.000000 -0.500000 -0.127118
v 0.097545 -0.490393 -0.127118
v 0.191342 -0.461940 -0.127118
v 0.277785 -0.415735 -0.127119
v 0.353553 -0.353553 -0.127119
v 0.415735 -0.277785 -0.127119
v 0.461940 -0.191342 -0.127119
v 0.490393 -0.097545 -0.127119
v 0.500000 0.000000 -0.127119
v 0.490393 0.097545 -0.127119
v 0.461940 0.191342 -0.127119
v 0.415735 0.277785 -0.127119
v 0.353553 0.353553 -0.127119
v 0.277785 0.415735 -0.127119
v 0.191342 0.461940 -0.127119
v 0.097545 0.490393 -0.127118
v 0.000000 0.113462 -0.323323
v -0.022135 0.111281 -0.323323
v -0.043420 0.104825 -0.323323
v -0.063036 0.094340 -0.323323
v -0.080229 0.080229 -0.323323
v -0.094340 0.063036 -0.323323
v -0.104825 0.043420 -0.323323
v -0.111281 0.022135 -0.323323
v -0.113462 0.000000 -0.323323
v -0.111281 -0.022135 -0.323323
v -0.104825 -0.043420 -0.323323
v -0.094340 -0.063036 -0.323323
v -0.080229 -0.080229 -0.323323
v -0.063036 -0.094340 -0.323323
v -0.043420 -0.104825 -0.323323
v -0.022135 -0.111281 -0.323323
v 0.000000 -0.113462 -0.323323
v 0.022135 -0.111281 -0.323323
v 0.043420 -0.104825 -0.323323
v 0.063036 -0.094340 -0.323323
v 0.080229 -0.080229 -0.323323
v 0.094340 -0.063036 -0.323323
v 0.104825 -0.043420 -0.323323
v 0.111281 -0.022135 -0.323323
v 0.113462 0.000000 -0.323323
v 0.111281 0.022135 -0.323323
v 0.104825 0.043420 -0.323323
v 0.094340 0.063036 -0.323323
v 0.080229 0.080229 -0.323323
v 0.063036 0.094340 -0.323323
v 0.043420 0.104825 -0.323323
v 0.022135 0.111281 -0.323323
vn 0.1024 0.5146 -0.8513
vn 0.0958 0.4816 -0.8711
vn -0.0000 0.4910 -0.8711
vn -0.0000 0.5247 -0.8513
vn 0.2008 0.4848 -0.8513
vn 0.1879 0.4537 -0.8711
vn 0.2915 0.4363 -0.8513
vn 0.2728 0.4083 -0.8711
vn 0.3710 0.3710 -0.8513
vn 0.3472 0.3472 -0.8711
vn 0.4363 0.2915 -0.8513
vn 0.4083 0.2728 -0.8711
vn 0.4848 0.2008 -0.8513
vn 0.4537 0.1879 -0.8711
vn 0.5146 0.1024 -0.8513
vn 0.4816 0.0958 -0.8711
vn 0.5247 -0.0000 -0.8513
vn 0.4910 -0.0000 -0.8711
vn 0.5146 -0.1024 -0.8513
vn 0.4816 -0.0958 -0.8711
vn 0.4848 -0.2008 -0.8513
vn 0.4537 -0.1879 -0.8711
vn 0.4363 -0.2915 -0.8513
vn 0.4083 -0.2728 -0.8711
vn 0.3710 -0.3710 -0.8513
vn 0.3472 -0.3472 -0.8711
vn 0.2915 -0.4363 -0.8513
vn 0.2728 -0.4083 -0.8711
vn 0.2008 -0.4848 -0.8513
vn 0.1879 -0.4537 -0.8711
vn 0.1024 -0.5146 -0.8513
vn 0.0958 -0.4816 -0.8711
vn -0.0000 -0.5247 -0.8513
vn -0.0000 -0.4910 -0.8711
vn -0.1024 -0.5146 -0.8513
vn -0.0958 -0.4816 -0.8711
vn -0.2008 -0.4848 -0.8513
vn -0.1879 -0.4537 -0.8711
vn -0.2915 -0.4363 -0.8513
vn -0.2728 -0.4083 -0.8711
vn -0.3710 -0.3710 -0.8513
vn -0.3472 -0.3472 -0.8711
vn -0.4363 -0.2915 -0.8513
vn -0.4083 -0.2728 -0.8711
vn -0.4848 -0.2008 -0.8513
vn -0.4537 -0.1879 -0.8711
vn -0.5146 -0.1024 -0.8513
vn -0.4816 -0.0958 -0.8711
vn -0.5247 -0.0000 -0.8513
vn -0.4910 -0.0000 -0.8711
vn -0.5146 0.1024 -0.8513
vn -0.4816 0.0958 -0.8711
vn -0.4848 0.2008 -0.8513
vn -0.4537 0.1879 -0.8711
vn -0.4363 0.2915 -0.8513
vn -0.4083 0.2728 -0.8711
vn -0.3710 0.3710 -0.8513
vn -0.3472 0.3472 -0.8711
vn -0.2915 0.4363 -0.8513
vn -0.2728 0.4083 -0.8711
vn -0.2008 0.4848 -0.8513
vn -0.1879 0.4537 -0.8711
vn -0.1024 0.5146 -0.8513
vn -0.0958 0.4816 -0.8711
vn 0.0883 0.4439 -0.8917
vn -0.0000 0.4526 -0.8917
vn 0.1732 0.4182 -0.8917
vn 0.2515 0.3763 -0.8917
vn 0.3201 0.3201 -0.8917
vn 0.3763 0.2515 -0.8917
vn 0.4182 0.1732 -0.8917
vn 0.4439 0.0883 -0.8917
vn 0.4526 -0.0000 -0.8917
vn 0.4439 -0.0883 -0.8917
vn 0.4182 -0.1732 -0.8917
vn 0.3763 -0.2515 -0.8917
vn 0.3201 -0.3201 -0.8917
vn 0.2515 -0.3763 -0.8917
vn 0.1732 -0.4182 -0.8917
vn 0.0883 -0.4439 -0.8917
vn -0.0000 -0.4526 -0.8917
vn -0.0883 -0.4439 -0.8917
vn -0.1732 -0.4182 -0.8917
vn -0.2515 -0.3763 -0.8917
vn -0.3201 -0.3201 -0.8917
vn -0.3763 -0.2515 -0.8917
vn -0.4182 -0.1732 -0.8917
vn -0.4439 -0.0883 -0.8917
vn -0.4526 -0.0000 -0.8917
vn -0.4439 0.0883 -0.8917
vn -0.4182 0.1732 -0.8917
vn -0.3763 0.2515 -0.8917
vn -0.3201 0.3201 -0.8917
vn -0.2515 0.3763 -0.8917
vn -0.1732 0.4182 -0.8917
vn -0.0883 0.4439 -0.8917
vt 0.402455 0.990393
vt 0.451227 0.745196
vt 0.500000 0.750000
vt 0.500000 1.000000
vt 0.308658 0.961940
vt 0.404329 0.730970
vt 0.222215 0.915735
vt 0.361107 0.707867
vt 0.146447 0.853553
vt 0.323223 0.676777
vt 0.084265 0.777785
vt 0.292133 0.638893
vt 0.038060 0.691342
vt 0.269030 0.595671
vt 0.009607 0.597545
vt 0.254804 0.548773
vt 0.000000 0.500000
vt 0.250000 0.500000
vt 0.009607 0.402455
vt 0.254804 0.451227
vt 0.038060 0.308658
vt 0.269030 0.404329
vt 0.084265 0.222215
vt 0.292133 0.361107
vt 0.146447 0.146447
vt 0.323223 0.323223
vt 0.222215 0.084265
vt 0.361107 0.292133
vt 0.308658 0.038060
vt 0.404329 0.269030
vt 0.402455 0.009607
vt 0.451227 0.254804
vt 0.500000 0.000000
vt 0.500000 0.250000
vt 0.597545 0.009607
vt 0.548773 0.254804
vt 0.691342 0.038060
vt 0.595671 0.269030
vt 0.777785 0.084265
vt 0.638893 0.292133
vt 0.853553 0.146447
vt 0.676777 0.323223
vt 0.915735 0.222215
vt 0.707867 0.361107
vt 0.961940 0.308658
vt 0.730970 0.404329
vt 0.990393 0.402455
vt 0.745196 0.451227
vt 1.000000 0.500000
vt 0.750000 0.500000
vt 0.990393 0.597545
vt 0.745196 0.548773
vt 0.961940 0.691342
vt 0.730970 0.595671
vt 0.915735 0.777785
vt 0.707867 0.638893
vt 0.853553 0.853553
vt 0.676777 0.676777
vt 0.777785 0.915735
vt 0.638893 0.707867
vt 0.691342 0.961940
vt 0.595671 0.730970
vt 0.597545 0.990393
vt 0.548773 0.745196
vt 0.488932 0.555641
vt 0.500000 0.556731
vt 0.478290 0.552412
vt 0.468482 0.547170
vt 0.459885 0.540115
vt 0.452830 0.531518
vt 0.447588 0.521710
vt 0.444359 0.511068
vt 0.443269 0.500000
vt 0.444359 0.488932
vt 0.447588 0.478290
vt 0.452830 0.468482
vt 0.459885 0.459885
vt 0.468482 0.452830
vt 0.478290 0.447588
vt 0.488932 0.444359
vt 0.500000 0.443269
vt 0.511068 0.444359
vt 0.521710 0.447588
vt 0.531518 0.452830
vt 0.540115 0.459885
vt 0.547170 0.468482
vt 0.552412 0.478290
vt 0.555641 0.488932
vt 0.556731 0.500000
vt 0.555641 0.511068
vt 0.552412 0.521710
vt 0.547170 0.531518
vt 0.540115 0.540115
vt 0.531518 0.547170
vt 0.521710 0.552412
vt 0.511068 0.555641
s 1
f 32/1/1 64/2/2 33/3/3 1/4/4
f 31/5/5 63/6/6 64/2/2 32/1/1
f 30/7/7 62/8/8 63/6/6 31/5/5
f 29/9/9 61/10/10 62/8/8 30/7/7
f 28/11/11 60/12/12 61/10/10 29/9/9
f 27/13/13 59/14/14 60/12/12 28/11/11
f 26/15/15 58/16/16 59/14/14 27/13/13
f 25/17/17 57/18/18 58/16/16 26/15/15
f 24/19/19 56/20/20 57/18/18 25/17/17
f 23/21/21 55/22/22 56/20/20 24/19/19
f 22/23/23 54/24/24 55/22/22 23/21/21
f 21/25/25 53/26/26 54/24/24 22/23/23
f 20/27/27 52/28/28 53/26/26 21/25/25
f 19/29/29 51/30/30 52/28/28 20/27/27
f 18/31/31 50/32/32 51/30/30 19/29/29
f 17/33/33 49/34/34 50/32/32 18/31/31
f 16/35/35 48/36/36 49/34/34 17/33/33
f 15/37/37 47/38/38 48/36/36 16/35/35
f 14/39/39 46/40/40 47/38/38 15/37/37
f 13/41/41 45/42/42 46/40/40 14/39/39
f 12/43/43 44/44/44 45/42/42 13/41/41
f 11/45/45 43/46/46 44/44/44 12/43/43
f 10/47/47 42/48/48 43/46/46 11/45/45
f 9/49/49 41/50/50 42/48/48 10/47/47
f 8/51/51 40/52/52 41/50/50 9/49/49
f 7/53/53 39/54/54 40/52/52 8/51/51
f 6/55/55 38/56/56 39/54/54 7/53/53
f 5/57/57 37/58/58 38/56/56 6/55/55
f 4/59/59 36/60/60 37/58/58 5/57/57
f 3/61/61 35/62/62 36/60/60 4/59/59
f 2/63/63 34/64/64 35/62/62 3/61/61
f 1/4/4 33/3/3 34/64/64 2/63/63
f 64/2/2 96/65/65 65/66/66 33/3/3
f 63/6/6 95/67/67 96/65/65 64/2/2
f 62/8/8 94/68/68 95/67/67 63/6/6
f 61/10/10 93/69/69 94/68/68 62/8/8
f 60/12/12 92/70/70 93/69/69 61/10/10
f 59/14/14 91/71/71 92/70/70 60/12/12
f 58/16/16 90/72/72 91/71/71 59/14/14
f 57/18/18 89/73/73 90/72/72 58/16/16
f 56/20/20 88/74/74 89/73/73 57/18/18
f 55/22/22 87/75/75 88/74/74 56/20/20
f 54/24/24 86/76/76 87/75/75 55/22/22
f 53/26/26 85/77/77 86/76/76 54/24/24
f 52/28/28 84/78/78 85/77/77 53/26/26
f 51/30/30 83/79/79 84/78/78 52/28/28
f 50/32/32 82/80/80 83/79/79 51/30/30
f 49/34/34 81/81/81 82/80/80 50/32/32
f 48/36/36 80/82/82 81/81/81 49/34/34
f 47/38/38 79/83/83 80/82/82 48/36/36
f 46/40/40 78/84/84 79/83/83 47/38/38
f 45/42/42 77/85/85 78/84/84 46/40/40
f 44/44/44 76/86/86 77/85/85 45/42/42
f 43/46/46 75/87/87 76/86/86 44/44/44
f 42/48/48 74/88/88 75/87/87 43/46/46
f 41/50/50 73/89/89 74/88/88 42/48/48
f 40/52/52 72/90/90 73/89/89 41/50/50
f 39/54/54 71/91/91 72/90/90 40/52/52
f 38/56/56 70/92/92 71/91/91 39/54/54
f 37/58/58 69/93/93 70/92/92 38/56/56
f 36/60/60 68/94/94 69/93/93 37/58/58
f 35/62/62 67/95/95 68/94/94 36/60/60
f 34/64/64 66/96/96 67/95/95 35/62/62
f 33/3/3 65/66/66 66/96/96 34/64/64
